<svg xmlns="http://www.w3.org/2000/svg" viewBox="0 0 512 512" aria-hidden="true" focusable="false">
  <path fill="#000000" d="M48 474C63 440 96 420 148 410C172 405 197 403 218 404C215 391 205 381 188 374C158 369 135 359 119 344C106 332 103 318 111 306C117 297 128 294 138 289C148 284 153 276 153 267C151 249 155 232 164 216L151 126L218 176C242 165 271 164 296 173L359 123L346 204C373 224 387 253 385 286C383 323 361 351 328 367C318 378 314 390 318 402C324 419 338 430 360 438C393 446 417 458 430 474Z"/>
</svg>
